{"asset":{"version":"2.0","generator":"babylon.js glTF exporter for 3dsmax 2017 v20200423.3"},"scene":0,"scenes":[{"nodes":[0,1,2]}],"nodes":[{"mesh":0,"name":"vintage_womens_boots_2"},{"mesh":1,"name":"vintage_womens_boots_1"},{"name":"Default light"}],"meshes":[{"primitives":[{"attributes":{"POSITION":1,"NORMAL":2,"TEXCOORD_0":3},"indices":0,"material":0}],"name":"vintage_womens_boots_2"},{"primitives":[{"attributes":{"POSITION":5,"NORMAL":6,"TEXCOORD_0":7},"indices":4,"material":0}],"name":"vintage_womens_boots_1"}],"accessors":[{"bufferView":0,"componentType":5125,"count":269784,"type":"SCALAR","name":"accessorIndices"},{"bufferView":1,"componentType":5126,"count":269784,"max":[0.352969378,0.782137752,0.425902724],"min":[0.0735012,0.0,-0.425902724],"type":"VEC3","name":"accessorPositions"},{"bufferView":1,"byteOffset":3237408,"componentType":5126,"count":269784,"type":"VEC3","name":"accessorNormals"},{"bufferView":2,"componentType":5126,"count":269784,"type":"VEC2","name":"accessorUVs"},{"bufferView":0,"byteOffset":1079136,"componentType":5125,"count":269784,"type":"SCALAR","name":"accessorIndices"},{"bufferView":1,"byteOffset":6474816,"componentType":5126,"count":269784,"max":[-0.07350122,0.782137752,0.425902724],"min":[-0.352969378,2.54E-08,-0.4259027],"type":"VEC3","name":"accessorPositions"},{"bufferView":1,"byteOffset":9712224,"componentType":5126,"count":269784,"type":"VEC3","name":"accessorNormals"},{"bufferView":2,"byteOffset":2158272,"componentType":5126,"count":269784,"type":"VEC2","name":"accessorUVs"}],"bufferViews":[{"buffer":0,"byteLength":2158272,"name":"bufferViewScalar"},{"buffer":0,"byteOffset":2158272,"byteLength":12949632,"byteStride":12,"name":"bufferViewFloatVec3"},{"buffer":0,"byteOffset":15107904,"byteLength":4316544,"byteStride":8,"name":"bufferViewFloatVec2"}],"buffers":[{"uri":"vintage_womens_boots_1280.bin","byteLength":19424448}],"materials":[{"pbrMetallicRoughness":{"baseColorTexture":{"index":2},"metallicFactor":0.0,"roughnessFactor":0.3882092},"normalTexture":{"index":0},"emissiveTexture":{"index":1},"emissiveFactor":[1.0,1.0,1.0],"name":"vintage_womens_boots_1280_MatSG"}],"textures":[{"sampler":0,"source":0,"name":"vintage_womens_boots_1280_normal.png"},{"sampler":0,"source":1,"name":"vintage_womens_boots_1280_metallic.png"},{"sampler":0,"source":2,"name":"vintage_womens_boots_1280_baseColor.png"}],"images":[{"uri":"./vintage_womens_boots_1280_normal.png"},{"uri":"./vintage_womens_boots_1280_metallic.png"},{"uri":"./vintage_womens_boots_1280_baseColor.png"}],"samplers":[{"magFilter":9729,"minFilter":9987}]}