{"asset":{"version":"2.0","generator":"Babylon2Gltf2017","copyright":"2017 (c) BabylonJS"},"scene":0,"scenes":[{"nodes":[0,2,4,6,9,11,13,15,16,17]}],"nodes":[{"children":[1],"translation":[0.0,0.0,0.0],"rotation":[0.0,0.0,8.881784E-16,-1.0],"scale":[0.009972947,0.009972947,0.009972947],"name":"4010"},{"mesh":0,"translation":[0.0,0.0,0.0],"rotation":[4.84174848E-07,-2.885907E-14,5.96046448E-08,-1.0],"scale":[0.99999994,0.99999994,0.99999994],"name":"stitch_result_stitch all072"},{"children":[3],"translation":[0.0,0.0,0.0],"rotation":[0.0,0.0,8.881784E-16,-1.0],"scale":[0.009972947,0.009972947,0.009972947],"name":"4020"},{"mesh":1,"translation":[0.0,0.0,0.0],"rotation":[4.84174848E-07,-2.885907E-14,5.96046448E-08,-1.0],"scale":[0.99999994,0.99999994,0.99999994],"name":"stitch_result_stitch all047"},{"children":[5],"translation":[0.0,0.0,0.0],"rotation":[0.0,0.0,0.0,-1.0],"scale":[0.009972947,0.009972948,0.009972948],"name":"4022"},{"mesh":2,"translation":[0.0,7.62939453E-06,-6.10351563E-05],"rotation":[0.0,0.0,0.0,-1.0],"scale":[0.9999999,1.0,1.0],"name":"stitch_result_stitch all046"},{"children":[7,8],"translation":[0.0,0.0,0.0],"rotation":[0.0,0.0,0.0,-1.0],"scale":[0.009972947,0.00997294951,0.009972948],"name":"4024"},{"mesh":3,"translation":[0.0,0.0,-3.05175745E-05],"rotation":[0.0,0.0,0.0,-1.0],"scale":[0.99999994,0.99999994,0.9999999],"name":"stitch_result_stitch all048"},{"mesh":4,"translation":[0.0,0.0,-3.05175745E-05],"rotation":[0.0,0.0,0.0,-1.0],"scale":[0.99999994,0.99999994,0.9999999],"name":"stitch_result_stitch all045"},{"children":[10],"translation":[0.0,0.0,0.0],"rotation":[8.742278E-08,0.0,0.0,-1.0],"scale":[0.009972947,0.009972947,0.009972947],"name":"4032"},{"mesh":5,"translation":[0.0,0.0,0.0],"rotation":[3.89414339E-07,-6.0181297E-15,1.54543081E-08,-1.0],"scale":[0.99999994,0.99999994,0.99999994],"name":"stitch_result_stitch all037"},{"children":[12],"translation":[0.0,0.0,0.0],"rotation":[0.0,0.0,8.881784E-16,-1.0],"scale":[0.009972947,0.009972947,0.009972947],"name":"4077"},{"mesh":6,"translation":[0.0,0.0,0.0],"rotation":[4.84174848E-07,-2.885907E-14,5.96046448E-08,-1.0],"scale":[0.99999994,0.99999994,0.99999994],"name":"stitch_result_stitch all009"},{"children":[14],"translation":[0.0,0.0,0.0],"rotation":[0.0,0.0,8.881784E-16,-1.0],"scale":[0.009972947,0.009972947,0.009972947],"name":"4079"},{"mesh":7,"translation":[0.0,0.0,0.0],"rotation":[4.84174848E-07,-2.885907E-14,5.96046448E-08,-1.0],"scale":[0.99999994,0.99999994,0.99999994],"name":"stitch_result_stitch all011"},{"mesh":8,"translation":[0.0,0.0,0.0],"rotation":[0.0,-1.49011612E-08,0.0,-1.0],"scale":[0.009972947,0.009972947,0.009972947],"name":"stitch_result_stitch all015"},{"mesh":9,"translation":[0.0,0.0,0.0],"rotation":[0.0,-1.49011612E-08,0.0,-1.0],"scale":[0.009972947,0.009972947,0.009972947],"name":"stitch_result_stitch all016"},{"mesh":10,"translation":[0.0,0.0,0.0],"rotation":[0.0,0.0,0.0,-1.0],"scale":[0.009972947,0.009972947,0.009972947],"name":"stitch_result_stitch all049"}],"meshes":[{"primitives":[{"attributes":{"POSITION":1,"NORMAL":2,"TEXCOORD_0":3},"indices":0,"mode":4,"material":0}],"name":"stitch_result_stitch all072"},{"primitives":[{"attributes":{"POSITION":5,"NORMAL":6,"TEXCOORD_0":7},"indices":4,"mode":4,"material":0}],"name":"stitch_result_stitch all047"},{"primitives":[{"attributes":{"POSITION":9,"NORMAL":10,"TEXCOORD_0":11},"indices":8,"mode":4,"material":0}],"name":"stitch_result_stitch all046"},{"primitives":[{"attributes":{"POSITION":13,"NORMAL":14,"TEXCOORD_0":15},"indices":12,"mode":4,"material":0}],"name":"stitch_result_stitch all048"},{"primitives":[{"attributes":{"POSITION":17,"NORMAL":18,"TEXCOORD_0":19},"indices":16,"mode":4,"material":0}],"name":"stitch_result_stitch all045"},{"primitives":[{"attributes":{"POSITION":21,"NORMAL":22,"TEXCOORD_0":23},"indices":20,"mode":4,"material":0}],"name":"stitch_result_stitch all037"},{"primitives":[{"attributes":{"POSITION":25,"NORMAL":26,"TEXCOORD_0":27},"indices":24,"mode":4,"material":0}],"name":"stitch_result_stitch all009"},{"primitives":[{"attributes":{"POSITION":29,"NORMAL":30,"TEXCOORD_0":31},"indices":28,"mode":4,"material":0}],"name":"stitch_result_stitch all011"},{"primitives":[{"attributes":{"POSITION":33,"NORMAL":34,"TEXCOORD_0":35},"indices":32,"mode":4,"material":0}],"name":"stitch_result_stitch all015"},{"primitives":[{"attributes":{"POSITION":37,"NORMAL":38,"TEXCOORD_0":39},"indices":36,"mode":4,"material":0}],"name":"stitch_result_stitch all016"},{"primitives":[{"attributes":{"POSITION":41,"NORMAL":42,"TEXCOORD_0":43},"indices":40,"mode":4,"material":0}],"name":"stitch_result_stitch all049"}],"accessors":[{"bufferView":0,"componentType":5125,"count":78132,"type":"SCALAR","name":"accessorIndices"},{"bufferView":1,"componentType":5126,"count":78132,"max":[2.234406,13.1535425,12.50088],"min":[-2.26559377,0.653540254,-2.24063134],"type":"VEC3","name":"accessorPositions"},{"bufferView":1,"byteOffset":937584,"componentType":5126,"count":78132,"type":"VEC3","name":"accessorNormals"},{"bufferView":2,"componentType":5126,"count":78132,"type":"VEC2","name":"accessorUVs"},{"bufferView":0,"byteOffset":312528,"componentType":5123,"count":1182,"type":"SCALAR","name":"accessorIndices"},{"bufferView":1,"byteOffset":1875168,"componentType":5126,"count":1182,"max":[1.97440565,14.1435537,2.90332222],"min":[-2.00559425,12.7835512,-1.07667744],"type":"VEC3","name":"accessorPositions"},{"bufferView":1,"byteOffset":1889352,"componentType":5126,"count":1182,"type":"VEC3","name":"accessorNormals"},{"bufferView":2,"byteOffset":625056,"componentType":5126,"count":1182,"type":"VEC2","name":"accessorUVs"},{"bufferView":0,"byteOffset":314892,"componentType":5123,"count":6210,"type":"SCALAR","name":"accessorIndices"},{"bufferView":1,"byteOffset":1903536,"componentType":5126,"count":6210,"max":[1.16960764,12.3693,11.78392],"min":[-1.20030761,10.69321,9.249288],"type":"VEC3","name":"accessorPositions"},{"bufferView":1,"byteOffset":1978056,"componentType":5126,"count":6210,"type":"VEC3","name":"accessorNormals"},{"bufferView":2,"byteOffset":634512,"componentType":5126,"count":6210,"type":"VEC2","name":"accessorUVs"},{"bufferView":0,"byteOffset":327312,"componentType":5123,"count":15441,"type":"SCALAR","name":"accessorIndices"},{"bufferView":1,"byteOffset":2052576,"componentType":5126,"count":15441,"max":[1.03145134,12.3485584,11.5419645],"min":[-1.06227648,10.759881,9.388152],"type":"VEC3","name":"accessorPositions"},{"bufferView":1,"byteOffset":2237868,"componentType":5126,"count":15441,"type":"VEC3","name":"accessorNormals"},{"bufferView":2,"byteOffset":684192,"componentType":5126,"count":15441,"type":"VEC2","name":"accessorUVs"},{"bufferView":0,"byteOffset":358196,"componentType":5123,"count":12696,"type":"SCALAR","name":"accessorIndices"},{"bufferView":1,"byteOffset":2423160,"componentType":5126,"count":12696,"max":[0.8591072,11.1732512,11.4777021],"min":[-0.8893192,10.7711582,9.738474],"type":"VEC3","name":"accessorPositions"},{"bufferView":1,"byteOffset":2575512,"componentType":5126,"count":12696,"type":"VEC3","name":"accessorNormals"},{"bufferView":2,"byteOffset":807720,"componentType":5126,"count":12696,"type":"VEC2","name":"accessorUVs"},{"bufferView":0,"byteOffset":383588,"componentType":5123,"count":2070,"type":"SCALAR","name":"accessorIndices"},{"bufferView":1,"byteOffset":2727864,"componentType":5126,"count":2070,"max":[0.369523019,14.9433784,3.28206754],"min":[-0.410477042,14.1633787,2.8182],"type":"VEC3","name":"accessorPositions"},{"bufferView":1,"byteOffset":2752704,"componentType":5126,"count":2070,"type":"VEC3","name":"accessorNormals"},{"bufferView":2,"byteOffset":909288,"componentType":5126,"count":2070,"type":"VEC2","name":"accessorUVs"},{"bufferView":0,"byteOffset":387728,"componentType":5123,"count":10884,"type":"SCALAR","name":"accessorIndices"},{"bufferView":1,"byteOffset":2777544,"componentType":5126,"count":10884,"max":[2.14240575,0.3600373,2.18133831],"min":[-2.173594,0.00703609129,-2.13466144],"type":"VEC3","name":"accessorPositions"},{"bufferView":1,"byteOffset":2908152,"componentType":5126,"count":10884,"type":"VEC3","name":"accessorNormals"},{"bufferView":2,"byteOffset":925848,"componentType":5126,"count":10884,"type":"VEC2","name":"accessorUVs"},{"bufferView":0,"byteOffset":409496,"componentType":5123,"count":18678,"type":"SCALAR","name":"accessorIndices"},{"bufferView":1,"byteOffset":3038760,"componentType":5126,"count":18678,"max":[2.48440576,0.723551,2.52333856],"min":[-2.51559424,0.0335496739,-2.47666168],"type":"VEC3","name":"accessorPositions"},{"bufferView":1,"byteOffset":3262896,"componentType":5126,"count":18678,"type":"VEC3","name":"accessorNormals"},{"bufferView":2,"byteOffset":1012920,"componentType":5126,"count":18678,"type":"VEC2","name":"accessorUVs"},{"bufferView":0,"byteOffset":446852,"componentType":5123,"count":138,"type":"SCALAR","name":"accessorIndices"},{"bufferView":1,"byteOffset":3487032,"componentType":5126,"count":138,"max":[0.184161559,5.7822113,-0.757167637],"min":[-0.21584858,0.296728253,-3.074042],"type":"VEC3","name":"accessorPositions"},{"bufferView":1,"byteOffset":3488688,"componentType":5126,"count":138,"type":"VEC3","name":"accessorNormals"},{"bufferView":2,"byteOffset":1162344,"componentType":5126,"count":138,"type":"VEC2","name":"accessorUVs"},{"bufferView":0,"byteOffset":447128,"componentType":5123,"count":1398,"type":"SCALAR","name":"accessorIndices"},{"bufferView":1,"byteOffset":3490344,"componentType":5126,"count":1398,"max":[0.656804562,6.32940531,-2.04195738],"min":[-0.688501835,4.15179157,-3.5191834],"type":"VEC3","name":"accessorPositions"},{"bufferView":1,"byteOffset":3507120,"componentType":5126,"count":1398,"type":"VEC3","name":"accessorNormals"},{"bufferView":2,"byteOffset":1163448,"componentType":5126,"count":1398,"type":"VEC2","name":"accessorUVs"},{"bufferView":0,"byteOffset":449924,"componentType":5123,"count":13980,"type":"SCALAR","name":"accessorIndices"},{"bufferView":1,"byteOffset":3523896,"componentType":5126,"count":13980,"max":[2.25336552,16.3536167,9.118161],"min":[-2.294808,13.4536161,-1.35592341],"type":"VEC3","name":"accessorPositions"},{"bufferView":1,"byteOffset":3691656,"componentType":5126,"count":13980,"type":"VEC3","name":"accessorNormals"},{"bufferView":2,"byteOffset":1174632,"componentType":5126,"count":13980,"type":"VEC2","name":"accessorUVs"}],"bufferViews":[{"buffer":0,"byteLength":477884,"name":"bufferViewScalar"},{"buffer":0,"byteOffset":477884,"byteLength":3859416,"byteStride":12,"name":"bufferViewFloatVec3"},{"buffer":0,"byteOffset":4337300,"byteLength":1286472,"byteStride":8,"name":"bufferViewFloatVec2"}],"buffers":[{"uri":"ELEVEN EN08_gltf.bin","byteLength":5623772}],"materials":[{"pbrMetallicRoughness":{"baseColorFactor":[0.208333373,0.208333373,0.208333373,1.0],"metallicFactor":0.0,"roughnessFactor":0.0},"emissiveFactor":[0.0,0.0,0.0],"alphaMode":"OPAQUE","name":"Material #2147461677"}]}