{"asset":{"version":"2.0","generator":"Babylon2Gltf2017","copyright":"2017 (c) BabylonJS"},"scene":0,"scenes":[{"nodes":[0,1]}],"nodes":[{"mesh":0,"translation":[-4.726553,-21.1136646,0.0],"rotation":[0.0,0.0,0.0,-1.0],"scale":[1.0,1.0,1.0],"name":"stitch_result_stitch all"},{"mesh":1,"translation":[-4.726553,-21.1136646,0.0],"rotation":[0.0,0.0,0.0,-1.0],"scale":[1.0,1.0,1.0],"name":"stitch_result_stitch all"}],"meshes":[{"primitives":[{"attributes":{"POSITION":1,"NORMAL":2},"indices":0,"mode":4,"material":0}],"name":"stitch_result_stitch all"},{"primitives":[{"attributes":{"POSITION":4,"NORMAL":5},"indices":3,"mode":4,"material":0},{"attributes":{"POSITION":7,"NORMAL":8},"indices":6,"mode":4,"material":1}],"name":"stitch_result_stitch all"}],"accessors":[{"bufferView":0,"componentType":5123,"count":12981,"type":"SCALAR","name":"accessorIndices"},{"bufferView":1,"componentType":5126,"count":12981,"max":[12.7946234,10.9677343,12.7951889],"min":[-12.7949276,0.0,-12.7948141],"type":"VEC3","name":"accessorPositions"},{"bufferView":1,"byteOffset":155772,"componentType":5126,"count":12981,"type":"VEC3","name":"accessorNormals"},{"bufferView":0,"byteOffset":25964,"componentType":5123,"count":30987,"type":"SCALAR","name":"accessorIndices"},{"bufferView":1,"byteOffset":311544,"componentType":5126,"count":30987,"max":[22.2428474,42.2255058,21.4651585],"min":[-12.3234081,9.842285,-21.4651585],"type":"VEC3","name":"accessorPositions"},{"bufferView":1,"byteOffset":683388,"componentType":5126,"count":30987,"type":"VEC3","name":"accessorNormals"},{"bufferView":0,"byteOffset":87940,"componentType":5123,"count":33711,"type":"SCALAR","name":"accessorIndices"},{"bufferView":1,"byteOffset":1055232,"componentType":5126,"count":33711,"max":[19.33425,42.1277046,20.4227467],"min":[-12.0802364,15.4775915,-20.4228535],"type":"VEC3","name":"accessorPositions"},{"bufferView":1,"byteOffset":1459764,"componentType":5126,"count":33711,"type":"VEC3","name":"accessorNormals"}],"bufferViews":[{"buffer":0,"byteLength":155364,"name":"bufferViewScalar"},{"buffer":0,"byteOffset":155364,"byteLength":1864296,"byteStride":12,"name":"bufferViewFloatVec3"}],"buffers":[{"uri":"giovannetti2.bin","byteLength":2019660}],"materials":[{"pbrMetallicRoughness":{"baseColorFactor":[1.0,0.0,0.0,1.0],"metallicFactor":0.0,"roughnessFactor":0.9},"emissiveFactor":[0.0,0.0,0.0],"alphaMode":"OPAQUE","name":"RGB( 255,   0,   0 )"},{"pbrMetallicRoughness":{"baseColorFactor":[0.0,0.0,0.0,1.0],"metallicFactor":0.0,"roughnessFactor":0.9},"emissiveFactor":[0.0,0.0,0.0],"alphaMode":"OPAQUE","name":"RGB(   0,   0,   0 )"}]}