{"asset":{"version":"2.0","generator":"babylon.js glTF exporter for 3dsmax 2017 v20200423.3"},"scene":0,"scenes":[{"nodes":[0,1,2,3,4,5,6,7,8,9,10]}],"nodes":[{"mesh":0,"name":"Mens_Oxford_Shoes_Left_Heel"},{"mesh":1,"name":"Mens_Oxford_Shoes_Right_Heel"},{"mesh":2,"name":"Mens_Oxford_Shoes_Left_Laces"},{"mesh":3,"name":"Mens_Oxford_Shoes_Left_Sole001"},{"mesh":4,"name":"Mens_Oxford_Shoes_Right_Laces"},{"mesh":5,"name":"Mens_Oxford_Shoes_Right_Body"},{"mesh":6,"name":"Mens_Oxford_Shoes_Left_Tongue"},{"mesh":7,"name":"Mens_Oxford_Shoes_Right_Tongue"},{"mesh":8,"name":"Mens_Oxford_Shoes_Right_Sole"},{"mesh":9,"name":"Mens_Oxford_Shoes_Left_Body"},{"name":"Default light"}],"meshes":[{"primitives":[{"attributes":{"POSITION":1,"NORMAL":2,"TEXCOORD_0":3},"indices":0,"material":0}],"name":"Mens_Oxford_Shoes_Left_Heel"},{"primitives":[{"attributes":{"POSITION":5,"NORMAL":6,"TEXCOORD_0":7},"indices":4,"material":0}],"name":"Mens_Oxford_Shoes_Right_Heel"},{"primitives":[{"attributes":{"POSITION":9,"NORMAL":10,"TEXCOORD_0":11},"indices":8,"material":1}],"name":"Mens_Oxford_Shoes_Left_Laces"},{"primitives":[{"attributes":{"POSITION":13,"NORMAL":14,"TEXCOORD_0":15},"indices":12,"material":2}],"name":"Mens_Oxford_Shoes_Left_Sole001"},{"primitives":[{"attributes":{"POSITION":17,"NORMAL":18,"TEXCOORD_0":19},"indices":16,"material":1}],"name":"Mens_Oxford_Shoes_Right_Laces"},{"primitives":[{"attributes":{"POSITION":21,"NORMAL":22,"TEXCOORD_0":23},"indices":20,"material":3}],"name":"Mens_Oxford_Shoes_Right_Body"},{"primitives":[{"attributes":{"POSITION":25,"NORMAL":26,"TEXCOORD_0":27},"indices":24,"material":4}],"name":"Mens_Oxford_Shoes_Left_Tongue"},{"primitives":[{"attributes":{"POSITION":29,"NORMAL":30,"TEXCOORD_0":31},"indices":28,"material":4}],"name":"Mens_Oxford_Shoes_Right_Tongue"},{"primitives":[{"attributes":{"POSITION":33,"NORMAL":34,"TEXCOORD_0":35},"indices":32,"material":2}],"name":"Mens_Oxford_Shoes_Right_Sole"},{"primitives":[{"attributes":{"POSITION":37,"NORMAL":38,"TEXCOORD_0":39},"indices":36,"material":3}],"name":"Mens_Oxford_Shoes_Left_Body"}],"accessors":[{"bufferView":0,"componentType":5123,"count":12552,"type":"SCALAR","name":"accessorIndices"},{"bufferView":1,"componentType":5126,"count":12552,"max":[0.2772109,0.0672862,0.380587816],"min":[0.0237800628,7.62E-08,-0.385406],"type":"VEC3","name":"accessorPositions"},{"bufferView":1,"byteOffset":150624,"componentType":5126,"count":12552,"type":"VEC3","name":"accessorNormals"},{"bufferView":2,"componentType":5126,"count":12552,"type":"VEC2","name":"accessorUVs"},{"bufferView":0,"byteOffset":25104,"componentType":5123,"count":12552,"type":"SCALAR","name":"accessorIndices"},{"bufferView":1,"byteOffset":301248,"componentType":5126,"count":12552,"max":[-0.0179702956,0.0672862,0.3919384],"min":[-0.27783528,0.0,-0.372032],"type":"VEC3","name":"accessorPositions"},{"bufferView":1,"byteOffset":451872,"componentType":5126,"count":12552,"type":"VEC3","name":"accessorNormals"},{"bufferView":2,"byteOffset":100416,"componentType":5126,"count":12552,"type":"VEC2","name":"accessorUVs"},{"bufferView":0,"byteOffset":50208,"componentType":5123,"count":4512,"type":"SCALAR","name":"accessorIndices"},{"bufferView":1,"byteOffset":602496,"componentType":5126,"count":4512,"max":[0.203800932,0.2799974,0.0677582845],"min":[0.135113373,0.171652079,-0.07280719],"type":"VEC3","name":"accessorPositions"},{"bufferView":1,"byteOffset":656640,"componentType":5126,"count":4512,"type":"VEC3","name":"accessorNormals"},{"bufferView":2,"byteOffset":200832,"componentType":5126,"count":4512,"type":"VEC2","name":"accessorUVs"},{"bufferView":0,"byteOffset":59232,"componentType":5123,"count":1344,"type":"SCALAR","name":"accessorIndices"},{"bufferView":1,"byteOffset":710784,"componentType":5126,"count":1344,"max":[0.2660512,0.0698516741,0.3648207],"min":[0.0347287841,0.0238719359,-0.37451753],"type":"VEC3","name":"accessorPositions"},{"bufferView":1,"byteOffset":726912,"componentType":5126,"count":1344,"type":"VEC3","name":"accessorNormals"},{"bufferView":2,"byteOffset":236928,"componentType":5126,"count":1344,"type":"VEC2","name":"accessorUVs"},{"bufferView":0,"byteOffset":61920,"componentType":5123,"count":4512,"type":"SCALAR","name":"accessorIndices"},{"bufferView":1,"byteOffset":743040,"componentType":5126,"count":4512,"max":[-0.121254005,0.279997379,0.07558905],"min":[-0.201552629,0.171652079,-0.06800276],"type":"VEC3","name":"accessorPositions"},{"bufferView":1,"byteOffset":797184,"componentType":5126,"count":4512,"type":"VEC3","name":"accessorNormals"},{"bufferView":2,"byteOffset":247680,"componentType":5126,"count":4512,"type":"VEC2","name":"accessorUVs"},{"bufferView":0,"byteOffset":70944,"componentType":5125,"count":91680,"type":"SCALAR","name":"accessorIndices"},{"bufferView":1,"byteOffset":851328,"componentType":5126,"count":91680,"max":[-0.011348974,0.284638762,0.3807514],"min":[-0.291336566,0.0212717373,-0.379115939],"type":"VEC3","name":"accessorPositions"},{"bufferView":1,"byteOffset":1951488,"componentType":5126,"count":91680,"type":"VEC3","name":"accessorNormals"},{"bufferView":2,"byteOffset":283776,"componentType":5126,"count":91680,"type":"VEC2","name":"accessorUVs"},{"bufferView":0,"byteOffset":437664,"componentType":5123,"count":7872,"type":"SCALAR","name":"accessorIndices"},{"bufferView":1,"byteOffset":3051648,"componentType":5126,"count":7872,"max":[0.264664859,0.286291659,0.09130342],"min":[0.06211316,0.132352725,-0.12378601],"type":"VEC3","name":"accessorPositions"},{"bufferView":1,"byteOffset":3146112,"componentType":5126,"count":7872,"type":"VEC3","name":"accessorNormals"},{"bufferView":2,"byteOffset":1017216,"componentType":5126,"count":7872,"type":"VEC2","name":"accessorUVs"},{"bufferView":0,"byteOffset":453408,"componentType":5123,"count":7872,"type":"SCALAR","name":"accessorIndices"},{"bufferView":1,"byteOffset":3240576,"componentType":5126,"count":7872,"max":[-0.06451323,0.286291629,0.103781939],"min":[-0.264790028,0.132352754,-0.121264495],"type":"VEC3","name":"accessorPositions"},{"bufferView":1,"byteOffset":3335040,"componentType":5126,"count":7872,"type":"VEC3","name":"accessorNormals"},{"bufferView":2,"byteOffset":1080192,"componentType":5126,"count":7872,"type":"VEC2","name":"accessorUVs"},{"bufferView":0,"byteOffset":469152,"componentType":5123,"count":1344,"type":"SCALAR","name":"accessorIndices"},{"bufferView":1,"byteOffset":3429504,"componentType":5126,"count":1344,"max":[-0.029234359,0.06985165,0.376222879],"min":[-0.2666843,0.0238719359,-0.3612051],"type":"VEC3","name":"accessorPositions"},{"bufferView":1,"byteOffset":3445632,"componentType":5126,"count":1344,"type":"VEC3","name":"accessorNormals"},{"bufferView":2,"byteOffset":1143168,"componentType":5126,"count":1344,"type":"VEC2","name":"accessorUVs"},{"bufferView":0,"byteOffset":471840,"componentType":5125,"count":91680,"type":"SCALAR","name":"accessorIndices"},{"bufferView":1,"byteOffset":3461760,"componentType":5126,"count":91680,"max":[0.291336566,0.284638762,0.368602157],"min":[0.0105418637,0.0212717373,-0.3919384],"type":"VEC3","name":"accessorPositions"},{"bufferView":1,"byteOffset":4561920,"componentType":5126,"count":91680,"type":"VEC3","name":"accessorNormals"},{"bufferView":2,"byteOffset":1153920,"componentType":5126,"count":91680,"type":"VEC2","name":"accessorUVs"}],"bufferViews":[{"buffer":0,"byteLength":838560,"name":"bufferViewScalar"},{"buffer":0,"byteOffset":838560,"byteLength":5662080,"byteStride":12,"name":"bufferViewFloatVec3"},{"buffer":0,"byteOffset":6500640,"byteLength":1887360,"byteStride":8,"name":"bufferViewFloatVec2"}],"buffers":[{"uri":"Mens_Oxford_Shoes.bin","byteLength":8388000}],"materials":[{"pbrMetallicRoughness":{"baseColorTexture":{"index":1},"metallicFactor":0.0,"roughnessFactor":0.3882092},"emissiveTexture":{"index":0},"emissiveFactor":[1.0,1.0,1.0],"name":"MATERIAL_MENS_OXFORD_SHOES_HEEL_Mat"},{"pbrMetallicRoughness":{"baseColorTexture":{"index":3},"metallicFactor":0.0,"roughnessFactor":0.3882092},"emissiveTexture":{"index":2},"emissiveFactor":[1.0,1.0,1.0],"name":"MATERIAL_MENS_OXFORD_SHOES_LACES_Mat"},{"pbrMetallicRoughness":{"baseColorTexture":{"index":5},"metallicFactor":0.0,"roughnessFactor":0.3882092},"emissiveTexture":{"index":4},"emissiveFactor":[1.0,1.0,1.0],"name":"MATERIAL_MENS_OXFORD_SHOES_SOLE_Mat"},{"pbrMetallicRoughness":{"baseColorTexture":{"index":1},"metallicRoughnessTexture":{"index":0}},"emissiveTexture":{"index":6},"emissiveFactor":[1.0,1.0,1.0],"name":"MATERIAL_MENS_OXFORD_SHOES_BODY_Mat"},{"pbrMetallicRoughness":{"baseColorTexture":{"index":8},"metallicFactor":0.0,"roughnessFactor":0.3882092},"emissiveTexture":{"index":7},"emissiveFactor":[1.0,1.0,1.0],"name":"MATERIAL_MENS_OXFORD_SHOES_TONGUE_Mat"}],"textures":[{"sampler":0,"source":0,"name":"Mens_Oxford_Shoes_Heel_glow.png"},{"sampler":0,"source":1,"name":"Mens_Oxford_Shoes_Body_baseColor.png"},{"sampler":0,"source":2,"name":"Mens_Oxford_Shoes_Laces_glow.png"},{"sampler":0,"source":3,"name":"Mens_Oxford_Shoes_Laces_baseColor.png"},{"sampler":0,"source":4,"name":"Mens_Oxford_Shoes_Sole_glow.png"},{"sampler":0,"source":5,"name":"Mens_Oxford_Shoes_Sole_baseColor.png"},{"sampler":0,"source":6,"name":"Mens_Oxford_Shoes_Body_glow.png"},{"sampler":0,"source":7,"name":"Mens_Oxford_Shoes_Tongue_glow.png"},{"sampler":0,"source":8,"name":"Mens_Oxford_Shoes_Tongue_baseColor.png"}],"images":[{"uri":"./Mens_Oxford_Shoes_Heel_glow.png"},{"uri":"./Mens_Oxford_Shoes_Body_baseColor.png"},{"uri":"./Mens_Oxford_Shoes_Laces_glow.png"},{"uri":"./Mens_Oxford_Shoes_Laces_baseColor.png"},{"uri":"./Mens_Oxford_Shoes_Sole_glow.png"},{"uri":"./Mens_Oxford_Shoes_Sole_baseColor.png"},{"uri":"./Mens_Oxford_Shoes_Body_glow.png"},{"uri":"./Mens_Oxford_Shoes_Tongue_glow.png"},{"uri":"./Mens_Oxford_Shoes_Tongue_baseColor.png"}],"samplers":[{"magFilter":9729,"minFilter":9987}]}