{"asset":{"version":"2.0","generator":"babylon.js glTF exporter for 3dsmax 2017 v20200423.3"},"scene":0,"scenes":[{"nodes":[0,1]}],"nodes":[{"mesh":0,"translation":[0.333313525,0.5371948,0.655510843],"rotation":[-8.14603354E-08,0.0,0.0,1.0],"scale":[39.37008,39.37008,39.37008],"name":"Plane.050"},{"name":"Default light"}],"meshes":[{"primitives":[{"attributes":{"POSITION":1,"NORMAL":2,"TEXCOORD_0":3},"indices":0,"material":0}],"name":"Plane.050"}],"accessors":[{"bufferView":0,"componentType":5125,"count":118092,"type":"SCALAR","name":"accessorIndices"},{"bufferView":1,"componentType":5126,"count":118092,"max":[0.0476059765,0.0190477483,0.0297846459],"min":[-0.0446309671,-0.013651656,-0.0350240655],"type":"VEC3","name":"accessorPositions"},{"bufferView":1,"byteOffset":1417104,"componentType":5126,"count":118092,"type":"VEC3","name":"accessorNormals"},{"bufferView":2,"componentType":5126,"count":118092,"type":"VEC2","name":"accessorUVs"}],"bufferViews":[{"buffer":0,"byteLength":472368,"name":"bufferViewScalar"},{"buffer":0,"byteOffset":472368,"byteLength":2834208,"byteStride":12,"name":"bufferViewFloatVec3"},{"buffer":0,"byteOffset":3306576,"byteLength":944736,"byteStride":8,"name":"bufferViewFloatVec2"}],"buffers":[{"uri":"leather-shoes.bin","byteLength":4251312}],"materials":[{"pbrMetallicRoughness":{"baseColorTexture":{"index":2},"metallicFactor":0.0,"roughnessFactor":0.450053632},"normalTexture":{"index":0},"emissiveTexture":{"index":1},"emissiveFactor":[1.0,1.0,1.0],"name":"Material #25"}],"textures":[{"sampler":0,"source":0,"name":"DefaultMaterial_Normal_DirectX.jpg"},{"sampler":0,"source":1,"name":"DefaultMaterial_Metallic.jpg"},{"sampler":0,"source":2,"name":"DefaultMaterial_Base_Color.jpg"}],"images":[{"uri":"./DefaultMaterial_Normal_DirectX.jpg"},{"uri":"./DefaultMaterial_Metallic.jpg"},{"uri":"./DefaultMaterial_Base_Color.jpg"}],"samplers":[{"magFilter":9729,"minFilter":9987}]}