{"asset":{"version":"2.0","generator":"Babylon2Gltf2017","copyright":"2017 (c) BabylonJS"},"scene":0,"scenes":[{"nodes":[0,1,2,3,4,5,6,7]}],"nodes":[{"mesh":0,"translation":[0.0,-5.06780624,0.0],"rotation":[-0.7071068,0.0,0.0,-0.7071067],"scale":[0.393700778,0.393700778,0.393700778],"name":"boot_l_hole"},{"mesh":1,"translation":[0.0,-5.06780624,0.0],"rotation":[-0.7071068,0.0,0.0,-0.7071067],"scale":[0.393700778,0.393700778,0.393700778],"name":"boot_l_main"},{"mesh":2,"translation":[0.0,-5.06780624,0.0],"rotation":[-0.7071068,0.0,0.0,-0.7071067],"scale":[0.393700778,0.393700778,0.393700778],"name":"boot_l_shoelace"},{"mesh":3,"translation":[0.0,-5.06780624,0.0],"rotation":[-0.7071068,0.0,0.0,-0.7071067],"scale":[0.393700778,0.393700778,0.393700778],"name":"boot_l_sole"},{"mesh":4,"translation":[0.0,-5.06780624,0.0],"rotation":[-0.7071068,0.0,0.0,-0.7071067],"scale":[0.393700778,0.393700778,0.393700778],"name":"boot_r_hole"},{"mesh":5,"translation":[0.0,-5.06780624,0.0],"rotation":[-0.7071068,0.0,0.0,-0.7071067],"scale":[0.393700778,0.393700778,0.393700778],"name":"boot_r_main"},{"mesh":6,"translation":[0.0,-5.06780624,0.0],"rotation":[-0.7071068,0.0,0.0,-0.7071067],"scale":[0.393700778,0.393700778,0.393700778],"name":"boot_r_shoelace"},{"mesh":7,"translation":[0.0,-5.06780624,0.0],"rotation":[-0.7071068,0.0,0.0,-0.7071067],"scale":[0.393700778,0.393700778,0.393700778],"name":"boot_r_sole"}],"meshes":[{"primitives":[{"attributes":{"POSITION":1,"NORMAL":2,"TEXCOORD_0":3},"indices":0,"mode":4,"material":0}],"name":"boot_l_hole"},{"primitives":[{"attributes":{"POSITION":5,"NORMAL":6,"TEXCOORD_0":7},"indices":4,"mode":4,"material":1}],"name":"boot_l_main"},{"primitives":[{"attributes":{"POSITION":9,"NORMAL":10,"TEXCOORD_0":11},"indices":8,"mode":4,"material":2}],"name":"boot_l_shoelace"},{"primitives":[{"attributes":{"POSITION":13,"NORMAL":14,"TEXCOORD_0":15},"indices":12,"mode":4,"material":3}],"name":"boot_l_sole"},{"primitives":[{"attributes":{"POSITION":17,"NORMAL":18,"TEXCOORD_0":19},"indices":16,"mode":4,"material":0}],"name":"boot_r_hole"},{"primitives":[{"attributes":{"POSITION":21,"NORMAL":22,"TEXCOORD_0":23},"indices":20,"mode":4,"material":1}],"name":"boot_r_main"},{"primitives":[{"attributes":{"POSITION":25,"NORMAL":26,"TEXCOORD_0":27},"indices":24,"mode":4,"material":2}],"name":"boot_r_shoelace"},{"primitives":[{"attributes":{"POSITION":29,"NORMAL":30,"TEXCOORD_0":31},"indices":28,"mode":4,"material":3}],"name":"boot_r_sole"}],"accessors":[{"bufferView":0,"componentType":5123,"count":16128,"type":"SCALAR","name":"accessorIndices"},{"bufferView":1,"componentType":5126,"count":16128,"max":[11.9549007,1.35367715,-11.8970251],"min":[7.38252354,-3.93617,-22.1116867],"type":"VEC3","name":"accessorPositions"},{"bufferView":1,"byteOffset":193536,"componentType":5126,"count":16128,"type":"VEC3","name":"accessorNormals"},{"bufferView":2,"componentType":5126,"count":16128,"type":"VEC2","name":"accessorUVs"},{"bufferView":0,"byteOffset":32256,"componentType":5123,"count":44460,"type":"SCALAR","name":"accessorIndices"},{"bufferView":1,"byteOffset":387072,"componentType":5126,"count":44460,"max":[18.16996,19.5795078,-1.07292557],"min":[2.28713417,-20.45712,-25.7444382],"type":"VEC3","name":"accessorPositions"},{"bufferView":1,"byteOffset":920592,"componentType":5126,"count":44460,"type":"VEC3","name":"accessorNormals"},{"bufferView":2,"byteOffset":129024,"componentType":5126,"count":44460,"type":"VEC2","name":"accessorUVs"},{"bufferView":0,"byteOffset":121176,"componentType":5123,"count":17088,"type":"SCALAR","name":"accessorIndices"},{"bufferView":1,"byteOffset":1454112,"componentType":5126,"count":17088,"max":[18.50029,1.64998317,-2.1688385],"min":[3.64828324,-5.969277,-22.0242233],"type":"VEC3","name":"accessorPositions"},{"bufferView":1,"byteOffset":1659168,"componentType":5126,"count":17088,"type":"VEC3","name":"accessorNormals"},{"bufferView":2,"byteOffset":484704,"componentType":5126,"count":17088,"type":"VEC2","name":"accessorUVs"},{"bufferView":0,"byteOffset":155352,"componentType":5123,"count":18612,"type":"SCALAR","name":"accessorIndices"},{"bufferView":1,"byteOffset":1864224,"componentType":5126,"count":18612,"max":[18.6344185,20.45712,0.0],"min":[2.940313,-20.4017582,-3.85419369],"type":"VEC3","name":"accessorPositions"},{"bufferView":1,"byteOffset":2087568,"componentType":5126,"count":18612,"type":"VEC3","name":"accessorNormals"},{"bufferView":2,"byteOffset":621408,"componentType":5126,"count":18612,"type":"VEC2","name":"accessorUVs"},{"bufferView":0,"byteOffset":192576,"componentType":5123,"count":16128,"type":"SCALAR","name":"accessorIndices"},{"bufferView":1,"byteOffset":2310912,"componentType":5126,"count":16128,"max":[-7.38252354,1.35367608,-11.8970251],"min":[-11.9549,-3.93617225,-22.1116867],"type":"VEC3","name":"accessorPositions"},{"bufferView":1,"byteOffset":2504448,"componentType":5126,"count":16128,"type":"VEC3","name":"accessorNormals"},{"bufferView":2,"byteOffset":770304,"componentType":5126,"count":16128,"type":"VEC2","name":"accessorUVs"},{"bufferView":0,"byteOffset":224832,"componentType":5123,"count":44460,"type":"SCALAR","name":"accessorIndices"},{"bufferView":1,"byteOffset":2697984,"componentType":5126,"count":44460,"max":[-2.28713417,19.5795078,-1.07292557],"min":[-18.16996,-20.45712,-25.7444382],"type":"VEC3","name":"accessorPositions"},{"bufferView":1,"byteOffset":3231504,"componentType":5126,"count":44460,"type":"VEC3","name":"accessorNormals"},{"bufferView":2,"byteOffset":899328,"componentType":5126,"count":44460,"type":"VEC2","name":"accessorUVs"},{"bufferView":0,"byteOffset":313752,"componentType":5123,"count":17088,"type":"SCALAR","name":"accessorIndices"},{"bufferView":1,"byteOffset":3765024,"componentType":5126,"count":17088,"max":[-3.64828324,1.64998209,-2.16883659],"min":[-18.50029,-5.969277,-22.0242233],"type":"VEC3","name":"accessorPositions"},{"bufferView":1,"byteOffset":3970080,"componentType":5126,"count":17088,"type":"VEC3","name":"accessorNormals"},{"bufferView":2,"byteOffset":1255008,"componentType":5126,"count":17088,"type":"VEC2","name":"accessorUVs"},{"bufferView":0,"byteOffset":347928,"componentType":5123,"count":18612,"type":"SCALAR","name":"accessorIndices"},{"bufferView":1,"byteOffset":4175136,"componentType":5126,"count":18612,"max":[-2.940313,20.45712,9.536743E-07],"min":[-18.6344185,-20.4017582,-3.85419178],"type":"VEC3","name":"accessorPositions"},{"bufferView":1,"byteOffset":4398480,"componentType":5126,"count":18612,"type":"VEC3","name":"accessorNormals"},{"bufferView":2,"byteOffset":1391712,"componentType":5126,"count":18612,"type":"VEC2","name":"accessorUVs"}],"bufferViews":[{"buffer":0,"byteLength":385152,"name":"bufferViewScalar"},{"buffer":0,"byteOffset":385152,"byteLength":4621824,"byteStride":12,"name":"bufferViewFloatVec3"},{"buffer":0,"byteOffset":5006976,"byteLength":1540608,"byteStride":8,"name":"bufferViewFloatVec2"}],"buffers":[{"uri":"boot.bin","byteLength":6547584}],"materials":[{"pbrMetallicRoughness":{"baseColorFactor":[1.0,1.0,1.0,1.0],"baseColorTexture":{"index":0},"metallicFactor":0.0,"roughnessFactor":0.99},"emissiveFactor":[0.0,0.0,0.0],"alphaMode":"OPAQUE","name":"grommet_Mat"},{"pbrMetallicRoughness":{"baseColorFactor":[1.0,1.0,1.0,1.0],"baseColorTexture":{"index":1},"metallicFactor":0.0,"roughnessFactor":0.99},"emissiveFactor":[0.0,0.0,0.0],"alphaMode":"OPAQUE","name":"leather_Mat"},{"pbrMetallicRoughness":{"baseColorFactor":[1.0,1.0,1.0,1.0],"baseColorTexture":{"index":2},"metallicFactor":0.0,"roughnessFactor":0.99},"emissiveFactor":[0.0,0.0,0.0],"alphaMode":"OPAQUE","name":"shoelace_fabric_Mat"},{"pbrMetallicRoughness":{"baseColorFactor":[1.0,1.0,1.0,1.0],"baseColorTexture":{"index":3},"metallicFactor":0.0,"roughnessFactor":0.99},"emissiveFactor":[0.0,0.0,0.0],"alphaMode":"OPAQUE","name":"rubber_Mat"}],"textures":[{"sampler":0,"source":0,"name":"grommet_Mat_baseColor.jpg"},{"sampler":1,"source":1,"name":"leather_Mat_baseColor.jpg"},{"sampler":2,"source":2,"name":"shoelace_fabric_Mat_baseColor.jpg"},{"sampler":3,"source":3,"name":"rubber_Mat_baseColor.jpg"}],"images":[{"uri":"grommet_Mat_baseColor.jpg"},{"uri":"leather_Mat_baseColor.jpg"},{"uri":"shoelace_fabric_Mat_baseColor.jpg"},{"uri":"rubber_Mat_baseColor.jpg"}],"samplers":[{"magFilter":9729,"minFilter":9987,"wrapS":10497,"wrapT":10497},{"magFilter":9729,"minFilter":9987,"wrapS":10497,"wrapT":10497},{"magFilter":9729,"minFilter":9987,"wrapS":10497,"wrapT":10497},{"magFilter":9729,"minFilter":9987,"wrapS":10497,"wrapT":10497}]}