{"asset":{"version":"2.0","generator":"babylon.js glTF exporter for 3dsmax 2017 v20200423.3"},"scene":0,"scenes":[{"nodes":[0,1,2,3,4,5,6,7,8]}],"nodes":[{"mesh":0,"name":"boot_r_sole"},{"mesh":1,"name":"boot_l_main"},{"mesh":2,"name":"boot_r_main"},{"mesh":3,"name":"boot_l_shoelace"},{"mesh":4,"name":"boot_r_shoelace"},{"mesh":5,"name":"boot_r_hole"},{"mesh":6,"name":"boot_l_hole"},{"mesh":7,"name":"boot_l_sole"},{"name":"Default light"}],"meshes":[{"primitives":[{"attributes":{"POSITION":1,"NORMAL":2,"TEXCOORD_0":3},"indices":0,"material":0}],"name":"boot_r_sole"},{"primitives":[{"attributes":{"POSITION":5,"NORMAL":6,"TEXCOORD_0":7},"indices":4,"material":1}],"name":"boot_l_main"},{"primitives":[{"attributes":{"POSITION":9,"NORMAL":10,"TEXCOORD_0":11},"indices":8,"material":1}],"name":"boot_r_main"},{"primitives":[{"attributes":{"POSITION":13,"NORMAL":14,"TEXCOORD_0":15},"indices":12,"material":2}],"name":"boot_l_shoelace"},{"primitives":[{"attributes":{"POSITION":17,"NORMAL":18,"TEXCOORD_0":19},"indices":16,"material":2}],"name":"boot_r_shoelace"},{"primitives":[{"attributes":{"POSITION":21,"NORMAL":22,"TEXCOORD_0":23},"indices":20,"material":3}],"name":"boot_r_hole"},{"primitives":[{"attributes":{"POSITION":25,"NORMAL":26,"TEXCOORD_0":27},"indices":24,"material":3}],"name":"boot_l_hole"},{"primitives":[{"attributes":{"POSITION":29,"NORMAL":30,"TEXCOORD_0":31},"indices":28,"material":0}],"name":"boot_l_sole"}],"accessors":[{"bufferView":0,"componentType":5123,"count":18612,"type":"SCALAR","name":"accessorIndices"},{"bufferView":1,"componentType":5126,"count":18612,"max":[-0.07468395,0.09789645,0.5196108],"min":[-0.473314166,0.0,-0.5182046],"type":"VEC3","name":"accessorPositions"},{"bufferView":1,"byteOffset":223344,"componentType":5126,"count":18612,"type":"VEC3","name":"accessorNormals"},{"bufferView":2,"componentType":5126,"count":18612,"type":"VEC2","name":"accessorUVs"},{"bufferView":0,"byteOffset":37224,"componentType":5123,"count":44460,"type":"SCALAR","name":"accessorIndices"},{"bufferView":1,"byteOffset":446688,"componentType":5126,"count":44460,"max":[0.461516917,0.6539087,0.49731943],"min":[0.0580932,0.0272523221,-0.5196108],"type":"VEC3","name":"accessorPositions"},{"bufferView":1,"byteOffset":980208,"componentType":5126,"count":44460,"type":"VEC3","name":"accessorNormals"},{"bufferView":2,"byteOffset":148896,"componentType":5126,"count":44460,"type":"VEC2","name":"accessorUVs"},{"bufferView":0,"byteOffset":126144,"componentType":5123,"count":44460,"type":"SCALAR","name":"accessorIndices"},{"bufferView":1,"byteOffset":1513728,"componentType":5126,"count":44460,"max":[-0.0580932,0.6539087,0.49731943],"min":[-0.461516917,0.0272523221,-0.5196108],"type":"VEC3","name":"accessorPositions"},{"bufferView":1,"byteOffset":2047248,"componentType":5126,"count":44460,"type":"VEC3","name":"accessorNormals"},{"bufferView":2,"byteOffset":504576,"componentType":5126,"count":44460,"type":"VEC2","name":"accessorUVs"},{"bufferView":0,"byteOffset":215064,"componentType":5123,"count":17088,"type":"SCALAR","name":"accessorIndices"},{"bufferView":1,"byteOffset":2580768,"componentType":5126,"count":17088,"max":[0.469907343,0.5594153,0.041909568],"min":[0.09266639,0.05508851,-0.151619628],"type":"VEC3","name":"accessorPositions"},{"bufferView":1,"byteOffset":2785824,"componentType":5126,"count":17088,"type":"VEC3","name":"accessorNormals"},{"bufferView":2,"byteOffset":860256,"componentType":5126,"count":17088,"type":"VEC2","name":"accessorUVs"},{"bufferView":0,"byteOffset":249240,"componentType":5123,"count":17088,"type":"SCALAR","name":"accessorIndices"},{"bufferView":1,"byteOffset":2990880,"componentType":5126,"count":17088,"max":[-0.09266639,0.5594153,0.0419095419],"min":[-0.469907343,0.0550884865,-0.151619628],"type":"VEC3","name":"accessorPositions"},{"bufferView":1,"byteOffset":3195936,"componentType":5126,"count":17088,"type":"VEC3","name":"accessorNormals"},{"bufferView":2,"byteOffset":996960,"componentType":5126,"count":17088,"type":"VEC2","name":"accessorUVs"},{"bufferView":0,"byteOffset":283416,"componentType":5123,"count":16128,"type":"SCALAR","name":"accessorIndices"},{"bufferView":1,"byteOffset":3400992,"componentType":5126,"count":16128,"max":[-0.187516078,0.561636865,0.0343833677],"min":[-0.303654462,0.302184433,-0.09997877],"type":"VEC3","name":"accessorPositions"},{"bufferView":1,"byteOffset":3594528,"componentType":5126,"count":16128,"type":"VEC3","name":"accessorNormals"},{"bufferView":2,"byteOffset":1133664,"componentType":5126,"count":16128,"type":"VEC2","name":"accessorUVs"},{"bufferView":0,"byteOffset":315672,"componentType":5123,"count":16128,"type":"SCALAR","name":"accessorIndices"},{"bufferView":1,"byteOffset":3788064,"componentType":5126,"count":16128,"max":[0.303654462,0.561636865,0.0343833975],"min":[0.187516078,0.302184433,-0.09997872],"type":"VEC3","name":"accessorPositions"},{"bufferView":1,"byteOffset":3981600,"componentType":5126,"count":16128,"type":"VEC3","name":"accessorNormals"},{"bufferView":2,"byteOffset":1262688,"componentType":5126,"count":16128,"type":"VEC2","name":"accessorUVs"},{"bufferView":0,"byteOffset":347928,"componentType":5123,"count":18612,"type":"SCALAR","name":"accessorIndices"},{"bufferView":1,"byteOffset":4175136,"componentType":5126,"count":18612,"max":[0.473314166,0.0978965,0.5196108],"min":[0.07468395,2.54E-08,-0.5182046],"type":"VEC3","name":"accessorPositions"},{"bufferView":1,"byteOffset":4398480,"componentType":5126,"count":18612,"type":"VEC3","name":"accessorNormals"},{"bufferView":2,"byteOffset":1391712,"componentType":5126,"count":18612,"type":"VEC2","name":"accessorUVs"}],"bufferViews":[{"buffer":0,"byteLength":385152,"name":"bufferViewScalar"},{"buffer":0,"byteOffset":385152,"byteLength":4621824,"byteStride":12,"name":"bufferViewFloatVec3"},{"buffer":0,"byteOffset":5006976,"byteLength":1540608,"byteStride":8,"name":"bufferViewFloatVec2"}],"buffers":[{"uri":"worn_brown_boots.bin","byteLength":6547584}],"materials":[{"pbrMetallicRoughness":{"baseColorTexture":{"index":1},"metallicFactor":0.0,"roughnessFactor":0.3882092},"normalTexture":{"index":0},"name":"rubber_Mat"},{"pbrMetallicRoughness":{"baseColorTexture":{"index":3},"metallicFactor":0.0,"roughnessFactor":0.7022211},"normalTexture":{"index":2},"name":"leather_Mat"},{"pbrMetallicRoughness":{"baseColorTexture":{"index":5},"metallicFactor":0.0,"roughnessFactor":0.3882092},"normalTexture":{"index":4},"name":"shoelace_fabric_Mat"},{"pbrMetallicRoughness":{"baseColorTexture":{"index":8},"metallicFactor":0.0,"roughnessFactor":0.3882092},"normalTexture":{"index":6},"emissiveTexture":{"index":7},"emissiveFactor":[1.0,1.0,1.0],"name":"grommet_Mat"}],"textures":[{"sampler":0,"source":0,"name":"rubber_Mat_normal.png"},{"sampler":0,"source":1,"name":"rubber_Mat_baseColor.png"},{"sampler":0,"source":2,"name":"leather_Mat_normal.png"},{"sampler":0,"source":3,"name":"leather_Mat_baseColor.png"},{"sampler":0,"source":4,"name":"shoelace_fabric_Mat_normal.png"},{"sampler":0,"source":5,"name":"shoelace_fabric_Mat_baseColor.png"},{"sampler":0,"source":6,"name":"grommet_Mat_normal.png"},{"sampler":0,"source":7,"name":"grommet_Mat_metallic.png"},{"sampler":0,"source":8,"name":"grommet_Mat_baseColor.png"}],"images":[{"uri":"./rubber_Mat_normal.png"},{"uri":"./rubber_Mat_baseColor.png"},{"uri":"./leather_Mat_normal.png"},{"uri":"./leather_Mat_baseColor.png"},{"uri":"./shoelace_fabric_Mat_normal.png"},{"uri":"./shoelace_fabric_Mat_baseColor.png"},{"uri":"./grommet_Mat_normal.png"},{"uri":"./grommet_Mat_metallic.png"},{"uri":"./grommet_Mat_baseColor.png"}],"samplers":[{"magFilter":9729,"minFilter":9987}]}